Coordinates
version=1
nRows=7
nColumns=33
inDegrees=yes

Units are S.I. units (second, meters, Newtons, ...)
Angles are in degrees.

endheader
time	ground_thorax_rot_x	ground_thorax_rot_y	ground_thorax_rot_z	ground_thorax_tx	ground_thorax_ty	ground_thorax_tz	clav_prot_r	clav_elev_r	scapula_abduction_r	scapula_elevation_r	scapula_upward_rot_r	scapula_winging_r	shoulder_elv_r	plane_of_elev_r	axial_rot_r	elbow_flexion_r	pro_sup_r	wrist_flex_r	wrist_dev_r	clav_prot_l	clav_elev_l	scapula_abduction_l	scapula_elevation_l	scapula_upward_rot_l	scapula_winging_l	shoulder_elv_l	plane_of_elev_l	axial_rot_l	elbow_flexion_l	pro_sup_l	wrist_flex_l	wrist_dev_l
      5.96000000	     25.90008062	     31.44393795	     42.99191591	    -75.12556570	    778.79853629	      5.53024341	     13.51675880	     38.67288907	     35.51908235	     43.44138817	    -34.06072204	  -1884.84709750	  -2280.67060763	    148.43707557	   -123.53368356	   1450.23324376	     25.44384292	     18.60453369	     11.70477589	      8.74385240	    -45.00000000	    -39.51122821	     45.00000000	    -45.00000000	   2250.25224347	  -4781.29665782	    138.42001086	   -179.99999979	    364.14653576	     46.00190941	     11.51098299	    -21.86562838
      5.97000000	     24.15900166	     28.65375447	     43.05753030	    -83.53229606	    785.14899720	     -8.06472543	     12.64116439	     36.65484199	     35.43414716	     42.10993173	    -34.29601626	  -1883.92518391	  -2281.54962798	    148.56912386	   -124.43080071	   1451.93357433	     29.89307946	     17.58693374	     10.67926636	      8.82686101	    -45.00000000	    -39.03058336	     45.00000000	    -45.00000000	   2251.09005998	  -4780.53967966	    137.69235701	   -179.99999979	    364.14615725	     44.36082652	     11.47633789	    -21.31084108
      5.98000000	     24.76402836	     28.27113023	     42.06845992	    -84.99997420	    785.38986417	     -8.12875053	     12.53495379	     37.06682589	     35.64257240	     42.12994702	    -33.25145733	  -1884.09754680	  -2281.57836116	    148.65536000	   -124.47329339	   1452.06083404	     31.25288251	     17.67996013	     10.58657807	      8.43146208	    -45.00000000	    -38.76729549	     45.00000000	    -45.00000000	   2250.70929648	  -4780.23237994	    137.63585295	   -179.99999979	    364.45308796	     44.31166142	     11.27071565	    -21.30374557
      5.99000000	     24.89851862	     28.26131680	     41.83208898	    -86.52321271	    785.66988837	     -8.18377536	     12.55902461	     37.30939197	     35.66354745	     42.29488978	    -33.20765891	  -1884.15249896	  -2281.43837209	    148.58435967	   -124.58597597	   1452.32195348	     32.40378463	     17.77217624	     10.39782309	      8.42637649	    -45.00000000	    -38.88760029	     45.00000000	    -45.00000000	   2250.76028151	  -4780.11295682	    137.61182429	   -179.99999979	    364.55753511	     44.11616981	     11.31727881	    -21.35028507
      6.00000000	     25.03939956	     28.25902512	     41.59900064	    -88.10603681	    785.98786472	     -8.22842952	     12.58732936	     37.47727184	     35.66620140	     42.50555354	    -33.20553491	  -1884.15061425	  -2281.33820778	    148.50552698	   -124.85463597	   1452.48821567	     33.35233457	     17.84470110	     10.27983324	      8.43080382	    -45.00000000	    -38.88306649	     45.00000000	    -45.00000000	   2250.80686129	  -4780.01717749	    137.55487836	   -179.99999979	    364.70300592	     43.86385819	     11.35179013	    -21.39555859
      6.01000000	     25.19850469	     28.20171483	     41.31027015	    -89.75571155	    786.34040093	     -8.25999753	     12.59325659	     37.59812957	     35.70286334	     42.65744197	    -33.11884650	  -1884.20017486	  -2281.22909479	    148.42602280	   -125.03894701	   1452.64032228	     34.11705530	     17.91731046	     10.19008261	      8.42687391	    -45.00000000	    -38.85525811	     45.00000000	    -45.00000000	   2250.80927095	  -4779.83681303	    137.50561179	   -179.99999979	    364.83212887	     43.59428726	     11.36789294	    -21.42811679
      6.02000000	     25.34074733	     28.23503706	     41.12491420	    -91.47456232	    786.72288845	     -8.27723692	     12.65355229	     37.81312842	     35.69829430	     42.92437028	    -33.22601863	  -1884.15215004	  -2281.07571356	    148.33968637	   -125.33667719	   1452.81261494	     34.78839296	     17.98239770	     10.07343487	      8.43963224	    -45.00000000	    -38.90756334	     45.00000000	    -45.00000000	   2250.89790096	  -4779.75056168	    137.46313646	   -179.99999979	    364.97637691	     43.29935347	     11.42346641	    -21.48262615
